<?xml version="1.0" encoding="UTF-8"?>
<svg width="752pt" height="752pt" version="1.1" viewBox="0 0 752 752" xmlns="http://www.w3.org/2000/svg" fill="white">
 <defs>
  <clipPath id="b">
   <path d="m171 198h412v414.79h-412z"/>
  </clipPath>
  <clipPath id="a">
   <path d="m171 139.21h89v89.789h-89z"/>
  </clipPath>
 </defs>
 <path d="m331.6 342.55c-9.1445 0-17.914-3.6328-24.383-10.102-6.4648-6.4648-10.098-15.234-10.098-24.383 0-9.1445 3.6328-17.914 10.098-24.383 6.4688-6.4648 15.238-10.098 24.383-10.098 9.1484 0 17.918 3.6328 24.383 10.098 6.4688 6.4688 10.102 15.238 10.102 24.383-0.039063 9.1367-3.6836 17.883-10.145 24.34-6.457 6.4609-15.203 10.105-24.34 10.145zm0-44.398c-4.25 0-8.0781 2.5586-9.707 6.4883-1.625 3.9258-0.72656 8.4453 2.2773 11.449 3.0078 3.0039 7.5273 3.9062 11.453 2.2773 3.9258-1.625 6.4844-5.457 6.4844-9.707 0.16406-2.8867-0.87109-5.7148-2.8594-7.8164-1.9883-2.1016-4.7539-3.2891-7.6484-3.2812z"/>
 <path d="m420.4 342.55c-9.1445 0-17.914-3.6328-24.383-10.102-6.4648-6.4648-10.098-15.234-10.098-24.383 0-9.1445 3.6328-17.914 10.098-24.383 6.4688-6.4648 15.238-10.098 24.383-10.098 9.1484 0 17.918 3.6328 24.383 10.098 6.4688 6.4688 10.102 15.238 10.102 24.383-0.039062 9.1367-3.6836 17.883-10.145 24.34-6.457 6.4609-15.207 10.105-24.34 10.145zm0-44.398c-4.25 0-8.082 2.5586-9.707 6.4883-1.625 3.9258-0.72656 8.4453 2.2773 11.449 3.0078 3.0039 7.5273 3.9062 11.453 2.2773 3.9258-1.625 6.4844-5.457 6.4844-9.707 0.16406-2.8867-0.87109-5.7148-2.8594-7.8164-1.9883-2.1016-4.7539-3.2891-7.6484-3.2812z"/>
 <path d="m376 432.68c-10.113-1.0117-19.414-5.9844-25.875-13.832-6.4609-7.8477-9.5547-17.93-8.6055-28.051-1.0352-10.168 2.0234-20.328 8.4922-28.242 6.4688-7.9141 15.82-12.926 25.988-13.938 10.172 1.0117 19.523 6.0234 25.992 13.938 6.4688 7.9141 9.5234 18.074 8.4922 28.242 0.94922 10.121-2.1445 20.203-8.6055 28.051-6.4609 7.8477-15.762 12.82-25.879 13.832zm0-60.086c-4.8828 0-10.508 7.6953-10.508 17.906 0 10.211 5.4766 18.055 10.508 18.055s10.508-7.6953 10.508-18.055-5.6211-17.906-10.508-17.906z"/>
 <g clip-path="url(#b)">
  <path d="m282.91 612.79h-9.9141-0.003906c-22.52-2.582-42.895-14.57-56.09-33.004-8.5664-12.484-21.504-21.301-36.258-24.715-3.7578-0.80469-6.8984-3.3633-8.4531-6.8789-1.5508-3.5156-1.3242-7.5625 0.60938-10.879 21.016-36.262 40.402-73.703 58.457-111.74 3.0391-6.4492 5.5625-13.129 7.5508-19.977l-50.469-29.602c-8.3789-4.8359-13.543-13.777-13.543-23.453 0-9.6797 5.1602-18.621 13.543-23.457 8.3789-4.8398 18.703-4.8398 27.086-0.003906l29.598 16.871v-4.8828-11.098c0.066406-43.633 21.66-84.418 57.711-109 36.047-24.574 81.906-29.777 122.54-13.898 40.637 15.875 70.82 50.789 80.66 93.293 3.1641 14.074 4.0625 28.562 2.6641 42.918v2.9609l29.598-16.871c6.2188-5.207 14.449-7.3555 22.422-5.8438 7.9727 1.5078 14.848 6.5078 18.734 13.629 3.8906 7.1211 4.3789 15.609 1.3398 23.133-3.043 7.5234-9.2969 13.285-17.043 15.699l-50.762 29.598v0.003906c1.668 5.6172 3.7461 11.109 6.2188 16.426 18.352 39.219 38.477 77.695 59.199 114.4h-0.003906c1.9375 3.3203 2.1641 7.3672 0.60938 10.883-1.5508 3.5156-4.6953 6.0742-8.4531 6.8789-14.793 3.4062-27.781 12.219-36.406 24.715-13.137 18.551-33.527 30.656-56.102 33.309-22.574 2.6523-45.215-4.3984-62.293-19.398-11.246-9.9297-25.848-15.223-40.848-14.801-15.164-0.62891-29.977 4.6836-41.289 14.801-14.055 12.312-31.941 19.371-50.613 19.98zm-81.695-76.957c13.516 6.25 25.262 15.758 34.188 27.676 9.1641 13.789 23.926 22.855 40.367 24.797 16.445 1.9375 32.91-3.4531 45.027-14.734 15.25-13.332 34.949-20.461 55.199-19.98 20.188-0.20703 39.762 6.9492 55.055 20.129 12.145 11.289 28.629 16.676 45.098 14.738 16.465-1.9375 31.25-11.004 40.445-24.805 8.9297-11.91 20.676-21.418 34.184-27.672-19.09-33.445-37-68.227-53.426-103.6-4.4297-9.4805-7.8516-19.402-10.211-29.598-1.2422-5.1523 1.043-10.508 5.625-13.172l59.199-33.891h-0.003906c0.80469-0.36719 1.4023-1.0742 1.6289-1.9258 0.22656-0.76562 0.13672-1.5898-0.25391-2.2852s-1.0469-1.207-1.8164-1.4141c-0.71094-0.30469-1.5117-0.30469-2.2227 0l-47.949 27.676c-3.6641 2.1133-8.1758 2.1133-11.84 0-3.7188-2.0781-6.0781-5.9531-6.2148-10.211-0.28516-8.9375 0.011719-17.887 0.88672-26.789 1.1289-11.781 0.37891-23.672-2.2188-35.223-4.6523-20.211-15.051-38.648-29.938-53.09-14.887-14.438-33.629-24.27-53.977-28.305-31.961-6.3164-65.074 1.9883-90.273 22.641-25.227 20.492-39.852 51.27-39.812 83.766v9.0273c0.58594 9.4648 0.58594 18.953 0 28.414-0.14844 4.2227-2.5039 8.0586-6.207 10.09-3.7031 2.0352-8.207 1.9688-11.848-0.17188l-46.469-27.379c-1.4297-0.81641-3.2539-0.32031-4.0703 1.1094s-0.32031 3.2539 1.1094 4.0703l58.309 33.594c4.5742 2.6055 6.918 7.8867 5.7734 13.023-2.6758 11.328-6.5469 22.344-11.543 32.855-15.984 34.777-33.449 68.375-51.801 100.64z"/>
 </g>
 <g clip-path="url(#a)">
  <path d="m215.43 228.01c-11.777 0-23.07-4.6797-31.395-13.004-8.3281-8.3281-13.004-19.621-13.004-31.395s4.6758-23.066 13.004-31.395c8.3242-8.3281 19.617-13.004 31.395-13.004 11.773 0 23.066 4.6758 31.391 13.004 8.3281 8.3281 13.004 19.621 13.004 31.395s-4.6758 23.066-13.004 31.395c-8.3242 8.3242-19.617 13.004-31.391 13.004zm0-64.23c-5.3555 0-10.492 2.1367-14.27 5.9336-3.7734 3.793-5.8828 8.9375-5.8555 14.293 0.023437 5.3555 2.1836 10.48 6 14.238 3.8125 3.7578 8.9688 5.8438 14.324 5.7891 5.3555-0.050781 10.469-2.2383 14.207-6.0703 3.7383-3.832 5.7969-8.9961 5.7188-14.352 0.039062-5.3633-2.0625-10.52-5.8438-14.328-3.7773-3.8047-8.918-5.9492-14.281-5.9492z"/>
 </g>
 <path d="m536.57 236.44c-10.754 0-21.066-4.2695-28.672-11.875-7.6055-7.6055-11.879-17.918-11.879-28.672 0-10.758 4.2734-21.07 11.879-28.676 7.6055-7.6055 17.918-11.875 28.672-11.875 10.754 0 21.07 4.2695 28.676 11.875 7.6016 7.6055 11.875 17.918 11.875 28.676 0 10.754-4.2734 21.066-11.875 28.672-7.6055 7.6055-17.922 11.875-28.676 11.875zm0-57.125c-4.3086 0.15625-8.3867 2-11.348 5.1367-2.9609 3.1367-4.5742 7.3125-4.4844 11.625 0.089843 4.3125 1.875 8.4141 4.9648 11.426 3.0898 3.0078 7.2383 4.6797 11.551 4.6562 4.3164-0.023437 8.4453-1.7422 11.504-4.7852 3.0547-3.0469 4.7891-7.168 4.832-11.48 0.003906-4.4766-1.8047-8.7617-5.0117-11.883-3.2031-3.1211-7.5352-4.8125-12.008-4.6953z"/>
 <path d="m207.44 307.78c-6.6211 0-11.988-5.3672-11.988-11.988-0.023438-9.3477 4.5742-18.098 12.281-23.383 3.6992-3.1094 3.6992-3.4023 3.6992-4.1445 0-0.73828 0-1.0352-3.6992-4.1445-7.1328-4.8555-11.656-12.703-12.281-21.309 0.25-9.1133 4.8789-17.543 12.43-22.645 3.6992-3.1094 3.6992-3.4023 3.6992-4.1445 0-6.6602 5.4023-12.062 12.062-12.062 6.6641 0 12.062 5.4023 12.062 12.062-0.21875 9.082-4.7891 17.508-12.285 22.645-3.6992 3.1094-3.6992 3.4023-3.6992 4.1445 0 0.73828 0 1.0352 3.6992 4.1445v-0.003906c7.4961 5.1367 12.066 13.562 12.285 22.645-0.21875 9.082-4.7891 17.508-12.285 22.645-3.6992 3.1094-3.6992 3.4023-3.6992 4.1445v-0.003906c-0.32031 6.5078-5.7734 11.566-12.281 11.398z"/>
 <path d="m543.68 307.78c-6.6211 0-11.988-5.3672-11.988-11.988-0.83203-0.99219-1.7773-1.8867-2.8125-2.6641-7.1328-4.6758-11.43-12.633-11.43-21.164 0-8.5273 4.2969-16.484 11.43-21.164 1.0156-0.80078 1.957-1.6914 2.8125-2.6641-0.86719-0.95703-1.8086-1.8477-2.8125-2.6641-7.0586-4.7578-11.363-12.648-11.543-21.16 0-6.6641 5.3984-12.062 12.062-12.062 6.6602 0 12.059 5.3984 12.059 12.062l2.8125 2.3672c6.9844 4.8086 11.227 12.688 11.398 21.164-0.17188 8.4766-4.4141 16.352-11.398 21.16-1.0156 0.80078-1.957 1.6953-2.8125 2.6641 0.86328 0.96484 1.8047 1.8555 2.8125 2.6641 6.9844 4.8125 11.227 12.688 11.398 21.164 0.078125 3.2305-1.1484 6.3555-3.4062 8.668-2.2578 2.3125-5.3516 3.6172-8.582 3.6172z"/>
</svg>
