<?xml version="1.0" encoding="iso-8859-1"?>
<!-- Generator: Adobe Illustrator 19.0.0, SVG Export Plug-In . SVG Version: 6.00 Build 0)  -->
<svg version="1.1" id="Layer_1" xmlns="http://www.w3.org/2000/svg" xmlns:xlink="http://www.w3.org/1999/xlink" x="0px" y="0px"
	 viewBox="0 0 512.001 512.001" style="enable-background:new 0 0 512.001 512.001;" xml:space="preserve" fill="transparent" stroke-width="10" stroke="white">
<g>
	<g>
		<path d="M492.806,118.662l-122.16,18.324L216.23,110.397c-1.667-0.29-4.054-0.332-6.113,0.081l-70.202,14.041
			C128.006,99.874,102.757,82.833,73.6,82.833c-40.583,0-73.6,33.016-73.6,73.599c0,20.135,17.531,54.535,52.108,102.247
			c2.468,3.407,5.691,6.131,9.347,8.015v145.753c0,10.534,9.649,18.46,19.993,16.391l132.176-26.435l154.002,26.517
			c1.604,0.277,3.442,0.34,5.317,0.058l124.822-18.724c8.183-1.228,14.235-8.256,14.235-16.531V135.192
			C512,124.968,502.897,117.152,492.806,118.662z M73.626,231.295c-27.711-39.321-40.194-65.741-40.194-74.863
			c0-22.149,18.019-40.169,40.169-40.169c24.795,0,41.604,22.098,40.129,41.117c-0.009,0.107-0.026,0.227-0.037,0.338
			C111.97,175.057,83.661,217.082,73.626,231.295z M196.677,371.698L94.885,392.057V259.008h0.001
			c0.07-0.095,0.142-0.191,0.211-0.286c16.989-23.347,51.547-72.914,52.095-101.565l49.486-9.898V371.698z M353.746,392.609
			L230.11,371.321V146.71l123.637,21.288V392.609z M478.569,379.329l-91.391,13.709V168.31l91.391-13.708V379.329z"/>
	</g>
</g>
<g>
	<g>
		<path d="M457.875,220.458l8.039-8.039c6.528-6.527,6.528-17.111,0-23.639c-6.527-6.527-17.111-6.527-23.639,0l-8.039,8.039
			l-8.039-8.039c-6.527-6.527-17.111-6.527-23.639,0c-6.528,6.527-6.528,17.111,0,23.639l8.039,8.039l-8.039,8.039
			c-6.528,6.528-6.528,17.112,0,23.639c6.528,6.528,17.111,6.528,23.639,0l8.039-8.039l8.039,8.039
			c6.528,6.528,17.111,6.528,23.639,0c6.528-6.527,6.528-17.111,0-23.639L457.875,220.458z"/>
	</g>
</g>
<g>
	<g>
		<circle cx="73.605" cy="156.437" r="20.876"/>
	</g>
</g>
<g>
</g>
<g>
</g>
<g>
</g>
<g>
</g>
<g>
</g>
<g>
</g>
<g>
</g>
<g>
</g>
<g>
</g>
<g>
</g>
<g>
</g>
<g>
</g>
<g>
</g>
<g>
</g>
<g>
</g>
</svg>
